<?xml version="1.0" encoding="UTF-8"?>
<svg id="Layer_1" xmlns="http://www.w3.org/2000/svg" version="1.1" viewBox="0 0 24 24">
  <!-- Generator: Adobe Illustrator 29.8.1, SVG Export Plug-In . SVG Version: 2.1.1 Build 2)  -->
  <defs>
    <style>
      .st0 {
        fill: #4f46e5;
      }
    </style>
  </defs>
  <path class="st0" d="M6,10.9l-1,.6c-.2.1-.5.2-.8.1s-.5-.2-.6-.5l-2-3.5c-.1-.2-.2-.5-.1-.8,0-.3.2-.5.5-.6l5.8-3.3h1.8c.2,0,.3,0,.4.1s.1.2.1.4v.5c0,.6.2,1,.6,1.4s.9.6,1.4.6,1-.2,1.4-.6.6-.9.6-1.4v-.5c0-.2,0-.3.1-.4s.2-.1.4-.1h1.8l5.8,3.3c.2.1.4.3.5.6s0,.5-.1.8l-2,3.5c-.1.2-.3.4-.6.4s-.5,0-.8-.1l-1-.5v9c0,.3,0,.5-.3.7-.2.2-.4.3-.7.3H7c-.3,0-.5,0-.7-.3-.2-.2-.3-.4-.3-.7v-9.1ZM8,7.6v11.4h8V7.6l3.1,1.7,1.1-1.8-4.3-2.5c-.3.9-.7,1.6-1.4,2.1s-1.5.8-2.4.8-1.7-.3-2.4-.8-1.2-1.3-1.4-2.1l-4.3,2.5,1.1,1.8,3.1-1.7Z"/>
</svg>